<?xml version="1.0" encoding="UTF-8" standalone="no"?>
<svg width="30px" height="42px" viewBox="0 0 30 42" version="1.1" xmlns="http://www.w3.org/2000/svg" xmlns:xlink="http://www.w3.org/1999/xlink">
    <!-- Generator: Sketch 40.1 (33804) - http://www.bohemiancoding.com/sketch -->
    <title>Page 1</title>
    <desc>Created with Sketch.</desc>
    <defs></defs>
    <g id="Page-1" stroke="none" stroke-width="1" fill="none" fill-rule="evenodd" opacity="0.6">
        <g id="6---Detalhes-Hospital" transform="translate(-70.000000, -1130.000000)">
            <g id="Page-1" transform="translate(60.000000, 1126.000000)">
                <polygon id="Stroke-1" stroke-opacity="0.00784313771" stroke="#000000" stroke-width="1.33333335e-11" points="0 0 49.9999969 0 49.9999969 49.9999969 0 49.9999969"></polygon>
                <path d="M24.9999985,4.16666642 C16.9374992,4.16666642 10.416666,10.6874996 10.416666,18.7499989 C10.416666,29.6874982 24.9999985,45.8333306 24.9999985,45.8333306 C24.9999985,45.8333306 39.583331,29.6874982 39.583331,18.7499989 C39.583331,10.6874996 33.0624976,4.16666642 24.9999985,4.16666642 L24.9999985,4.16666642 Z M24.9999985,23.9583319 C22.1249983,23.9583319 19.7916655,21.6249989 19.7916655,18.7499989 C19.7916655,15.8749988 22.1249983,13.5416659 24.9999985,13.5416659 C27.8749985,13.5416659 30.2083315,15.8749988 30.2083315,18.7499989 C30.2083315,21.6249989 27.8749985,23.9583319 24.9999985,23.9583319 L24.9999985,23.9583319 Z" id="Fill-2" fill="#000000"></path>
            </g>
        </g>
    </g>
</svg>