<?xml version="1.0" encoding="UTF-8" standalone="no"?>
<svg width="38px" height="38px" viewBox="0 0 38 38" version="1.1" xmlns="http://www.w3.org/2000/svg" xmlns:xlink="http://www.w3.org/1999/xlink">
    <!-- Generator: Sketch 40.3 (33839) - http://www.bohemiancoding.com/sketch -->
    <title>Page 1</title>
    <desc>Created with Sketch.</desc>
    <defs></defs>
    <g id="Page-1" stroke="none" stroke-width="1" fill="none" fill-rule="evenodd" opacity="0.6">
        <g id="6---Detalhes-Hospital" transform="translate(-66.000000, -1034.000000)">
            <g id="Page-1" transform="translate(60.000000, 1028.000000)">
                <polygon id="Stroke-1" stroke-opacity="0.00784313771" stroke="#000000" stroke-width="1.33333335e-11" points="0 0 49.9999969 0 49.9999969 49.9999969 0 49.9999969"></polygon>
                <path d="M13.7916656,22.4791651 C16.7916645,28.3749979 21.6249989,33.1874986 27.5208317,36.2083332 L32.1041643,31.6250006 C32.6666653,31.0624998 33.4999978,30.8750015 34.2291652,31.125001 C36.5625001,31.8958341 39.0833314,32.3125004 41.6666642,32.3125004 C42.8124958,32.3125004 43.7499974,33.2499999 43.7499974,34.3958356 L43.7499974,41.6666642 C43.7499974,42.8124958 42.8124958,43.7499974 41.6666642,43.7499974 C22.1041645,43.7499974 6.24999963,27.8958302 6.24999963,8.33333283 C6.24999963,7.18749965 7.18749965,6.24999963 8.33333283,6.24999963 L15.6249991,6.24999963 C16.7708327,6.24999963 17.7083323,7.18749965 17.7083323,8.33333283 C17.7083323,10.9374993 18.1249985,13.4374988 18.8958316,15.7708317 C19.1249975,16.4999982 18.958331,17.3124978 18.3749983,17.8958326 L13.7916656,22.4791651 L13.7916656,22.4791651 Z" id="Fill-2" fill="#000000"></path>
            </g>
        </g>
    </g>
</svg>