<?xml version="1.0" encoding="UTF-8" standalone="no"?>
<svg width="50px" height="45px" viewBox="0 0 50 45" version="1.1" xmlns="http://www.w3.org/2000/svg" xmlns:xlink="http://www.w3.org/1999/xlink">
    <!-- Generator: Sketch 40.3 (33839) - http://www.bohemiancoding.com/sketch -->
    <title>filter</title>
    <desc>Created with Sketch.</desc>
    <defs></defs>
    <g id="Page-1" stroke="none" stroke-width="1" fill="none" fill-rule="evenodd" opacity="0.3">
        <g id="5---Lista-de-Hospitais" transform="translate(-593.000000, -64.000000)" fill="#000000">
            <g id="filter" transform="translate(593.000000, 64.000000)">
                <g id="Capa_1">
                    <path d="M49.7467742,0.979388646 C49.4971774,0.463362445 48.9643145,0.134213974 48.3790323,0.134213974 L1.51209677,0.134213974 C0.926814516,0.134213974 0.394153226,0.463362445 0.144354839,0.979388646 C-0.105241935,1.49541485 -0.027016129,2.10537118 0.345362903,2.54554585 L18.3616935,23.8437118 L18.3616935,43.4825764 C18.3616935,43.9925109 18.6320565,44.4660917 19.0764113,44.7349127 C19.3199597,44.8820961 19.596371,44.9563755 19.8737903,44.9563755 C20.1030242,44.9563755 20.3330645,44.9054803 20.5451613,44.8031004 L30.6677419,39.9130349 C31.1820565,39.6646507 31.5074597,39.1539301 31.5082661,38.594476 L31.5280242,23.8443013 L49.5453629,2.54534934 C49.9179435,2.10537118 49.996371,1.49521834 49.7467742,0.979388646 L49.7467742,0.979388646 Z M29.0865852,22.8830004 C28.8534228,23.1585881 28.7255527,23.504718 28.7251307,23.8621593 L28.704874,38.8967011 L21.2746944,42.4861278 L21.2746944,23.8642159 C21.2746944,23.5061576 21.1470353,23.1592051 20.9132398,22.8830004 L3.83055768,2.68879913 L46.1692674,2.68879913 L29.0865852,22.8830004 L29.0865852,22.8830004 Z" id="Shape"></path>
                </g>
            </g>
        </g>
    </g>
</svg>