<?xml version="1.0" encoding="UTF-8" standalone="no"?>
<svg width="300px" height="80px" viewBox="0 0 300 80" version="1.1" xmlns="http://www.w3.org/2000/svg" xmlns:xlink="http://www.w3.org/1999/xlink">
    <!-- Generator: Sketch 40.3 (33839) - http://www.bohemiancoding.com/sketch -->
    <title>Group 5</title>
    <desc>Created with Sketch.</desc>
    <defs></defs>
    <g id="Page-1" stroke="none" stroke-width="1" fill="none" fill-rule="evenodd">
        <g id="1---Login-" transform="translate(-390.000000, -1094.000000)">
            <g id="Group-2" transform="translate(390.000000, 1094.000000)">
                <g id="Group-5">
                    <rect id="Rectangle-4" fill="#DC4E41" x="0" y="0" width="300" height="80"></rect>
                    <g id="google-plus" transform="translate(20.000000, 5.000000)">
                        <g id="Capa_1">
                            <g id="Group">
                                <ellipse id="XMLID_30_" fill="#DC4E41" cx="34.7509735" cy="35.0595614" rx="34.7509735" ry="34.4461404"></ellipse>
                                <g transform="translate(11.769912, 22.105263)" id="Shape">
                                    <path d="M0.328938053,14.4961404 C0.205663717,20.422807 4.32389381,26.0786842 9.98893805,27.9232456 C15.3250442,29.7002632 21.8858407,28.3708772 25.4366372,23.8411404 C28.029115,20.667193 28.6182301,16.4358772 28.3376106,12.4827193 C23.7677876,12.442193 19.1979646,12.4557018 14.6349558,12.4624561 C14.6275221,14.0761404 14.6349558,15.6836842 14.6417699,17.2973684 C17.3779646,17.3722807 20.1147788,17.3378947 22.8509735,17.3925439 C22.1602655,19.7387719 20.5868142,21.9222807 18.1987611,22.7696491 C13.5880531,24.7836842 7.70495575,22.1525439 6.25415929,17.3581579 C4.50292035,12.7670175 7.36982301,7.22657895 12.1031858,5.89105263 C15.0382301,4.86745614 18.0618584,6.02 20.5731858,7.53236842 C21.8455752,6.35219298 23.0361947,5.09096491 24.2057522,3.81622807 C21.3524779,1.44973684 17.6858407,-0.00122807018 13.9163717,0.31745614 C6.52053097,0.404649123 0.0483185841,7.17254386 0.328938053,14.4961404 L0.328938053,14.4961404 Z" fill="#DC4E41"></path>
                                    <path d="M37.2313274,8.39263158 C37.2176991,9.7422807 37.2034513,11.0986842 37.1966372,12.4477193 C35.8282301,12.4612281 34.4672566,12.4679825 33.1056637,12.4747368 L33.1056637,16.5163158 C34.4672566,16.5230702 35.8356637,16.5298246 37.1966372,16.5439474 C37.2102655,17.8935965 37.2102655,19.2426316 37.2238938,20.5990351 C38.5786726,20.5990351 39.9402655,20.5922807 41.3012389,20.5990351 C41.3086726,19.2426316 41.3148673,17.8935965 41.329115,16.537193 C42.6900885,16.5304386 44.0584956,16.5236842 45.4200885,16.5169298 L45.4200885,12.4753509 C44.059115,12.4685965 42.690708,12.4618421 41.329115,12.4483333 C41.3216814,11.0986842 41.3086726,9.7422807 41.3012389,8.39324561 C39.9402655,8.39263158 38.5854867,8.39263158 37.2313274,8.39263158 L37.2313274,8.39263158 Z" fill="#DC4E41"></path>
                                    <g fill="#FFFFFF">
                                        <path d="M0.328938053,14.4961404 C0.0483185841,7.17254386 6.5199115,0.404649123 13.9157522,0.316842105 C17.6852212,-0.00184210526 21.3524779,1.44912281 24.2051327,3.81561404 C23.0349558,5.09096491 21.8443363,6.35157895 20.5725664,7.53175439 C18.0612389,6.01938596 15.0376106,4.86684211 12.1025664,5.8904386 C7.36858407,7.22657895 4.50168142,12.7670175 6.25353982,17.3575439 C7.70433628,22.1519298 13.5874336,24.7830702 18.1981416,22.7690351 C20.5855752,21.9216667 22.159646,19.7381579 22.850354,17.3919298 C20.1141593,17.3378947 17.3773451,17.3716667 14.6411504,17.2967544 C14.6343363,15.6830702 14.6275221,14.0755263 14.6343363,12.4618421 C19.1973451,12.4550877 23.7671681,12.4415789 28.3369912,12.4821053 C28.6176106,16.4358772 28.029115,20.667193 25.4360177,23.8405263 C21.8852212,28.3702632 15.3250442,29.6996491 9.98831858,27.9226316 C4.32451327,26.0786842 0.205663717,20.422807 0.328938053,14.4961404 L0.328938053,14.4961404 Z"></path>
                                        <path d="M37.2313274,8.39263158 L41.3012389,8.39263158 C41.3086726,9.7422807 41.3216814,11.0986842 41.329115,12.4477193 C42.6900885,12.4612281 44.0584956,12.4679825 45.4200885,12.4747368 L45.4200885,16.5163158 C44.059115,16.5230702 42.690708,16.5298246 41.329115,16.5365789 C41.3154867,17.8929825 41.3086726,19.2420175 41.3012389,20.5984211 C39.9402655,20.5916667 38.5780531,20.5984211 37.2238938,20.5984211 C37.210885,19.2420175 37.210885,17.8929825 37.1966372,16.5433333 C35.8356637,16.5292105 34.4672566,16.5230702 33.1056637,16.5157018 L33.1056637,12.4741228 C34.4672566,12.4673684 35.8288496,12.460614 37.1966372,12.4471053 C37.2034513,11.0986842 37.2170796,9.7422807 37.2313274,8.39263158 L37.2313274,8.39263158 Z"></path>
                                    </g>
                                </g>
                            </g>
                        </g>
                    </g>
                </g>
            </g>
        </g>
    </g>
</svg>