<?xml version="1.0" encoding="UTF-8" standalone="no"?>
<svg width="99px" height="140px" viewBox="0 0 99 140" version="1.1" xmlns="http://www.w3.org/2000/svg" xmlns:xlink="http://www.w3.org/1999/xlink">
    <!-- Generator: Sketch 40.3 (33839) - http://www.bohemiancoding.com/sketch -->
    <title>placeholder</title>
    <desc>Created with Sketch.</desc>
    <defs></defs>
    <g id="Page-1" stroke="none" stroke-width="1" fill="none" fill-rule="evenodd">
        <g id="0---Tutorial" transform="translate(-326.000000, -284.000000)">
            <g id="placeholder" transform="translate(326.000000, 284.000000)">
                <g id="Capa_1">
                    <g id="Layer_2_24_">
                        <g id="Group">
                            <path d="M49.5496634,0 C22.2756535,0 0.165326733,22.0324186 0.165326733,49.2103256 C0.165326733,76.3885581 34.1099109,139.773721 49.5496634,139.773721 C64.9894158,139.773721 98.934,76.3882326 98.934,49.2103256 C98.934,22.0324186 76.8236733,0 49.5496634,0 L49.5496634,0 Z M49.5496634,83.5122791 C30.9850396,83.5122791 15.9350792,68.5153488 15.9350792,50.0161395 C15.9350792,31.5169302 30.9850396,16.5206512 49.5496634,16.5206512 C68.1142871,16.5206512 83.1642475,31.5169302 83.1642475,50.0161395 C83.1642475,68.5153488 68.1142871,83.5122791 49.5496634,83.5122791 L49.5496634,83.5122791 Z" id="Shape" fill="#00CCFF"></path>
                            <path d="M49.5496634,16.5206512 C30.9850396,16.5206512 15.9350792,31.5169302 15.9350792,50.0161395 C15.9350792,68.5153488 30.9847129,83.5122791 49.5496634,83.5122791 C68.1146139,83.5122791 83.1642475,68.5153488 83.1642475,50.0161395 C83.1642475,31.5169302 68.1142871,16.5206512 49.5496634,16.5206512 L49.5496634,16.5206512 Z M66.3760693,51.4454419 C66.3760693,53.8062326 64.4555347,55.72 62.0854158,55.72 L55.2743465,55.72 L55.2743465,62.5073953 C55.2743465,64.8688372 53.3541386,66.7832558 50.9840198,66.7832558 L48.5057525,66.7832558 L48.1153069,66.7832558 C45.7458416,66.7832558 43.824,64.8688372 43.824,62.5073953 L43.824,55.72 L37.0129307,55.72 C34.6447723,55.72 32.7235842,53.8062326 32.7235842,51.4454419 L32.7235842,48.5855349 C32.7235842,46.2250698 34.6447723,44.3109767 37.0129307,44.3109767 L43.824,44.3109767 L43.824,37.5242326 C43.824,35.1624651 45.7458416,33.2486977 48.1153069,33.2486977 L48.5057525,33.2486977 L50.9840198,33.2486977 C53.3541386,33.2486977 55.2743465,35.1624651 55.2743465,37.5242326 L55.2743465,44.3109767 L62.0854158,44.3109767 C64.4555347,44.3109767 66.3760693,46.2250698 66.3760693,48.5855349 L66.3760693,51.4454419 L66.3760693,51.4454419 Z" id="Shape" fill="#F7F1E6"></path>
                            <path d="M62.0854158,44.3109767 L55.2743465,44.3109767 L55.2743465,37.5242326 C55.2743465,35.1624651 53.3541386,33.2486977 50.9840198,33.2486977 L48.5057525,33.2486977 L48.1153069,33.2486977 C45.7458416,33.2486977 43.824,35.1624651 43.824,37.5242326 L43.824,44.3109767 L37.0129307,44.3109767 C34.6447723,44.3109767 32.7235842,46.2250698 32.7235842,48.5855349 L32.7235842,51.4454419 C32.7235842,53.8062326 34.6447723,55.72 37.0129307,55.72 L43.824,55.72 L43.824,62.5073953 C43.824,64.8688372 45.7458416,66.7832558 48.1153069,66.7832558 L48.5057525,66.7832558 L50.9840198,66.7832558 C53.3541386,66.7832558 55.2743465,64.8688372 55.2743465,62.5073953 L55.2743465,55.72 L62.0854158,55.72 C64.4555347,55.72 66.3760693,53.8062326 66.3760693,51.4454419 L66.3760693,48.5855349 C66.3760693,46.2250698 64.4555347,44.3109767 62.0854158,44.3109767 L62.0854158,44.3109767 Z" id="Shape" fill="#00CCFF"></path>
                        </g>
                    </g>
                </g>
            </g>
        </g>
    </g>
</svg>