<?xml version="1.0" encoding="UTF-8" standalone="no"?>
<svg width="38px" height="38px" viewBox="0 0 38 38" version="1.1" xmlns="http://www.w3.org/2000/svg" xmlns:xlink="http://www.w3.org/1999/xlink">
    <!-- Generator: Sketch 40.3 (33839) - http://www.bohemiancoding.com/sketch -->
    <title>Page 1</title>
    <desc>Created with Sketch.</desc>
    <defs></defs>
    <g id="Page-1" stroke="none" stroke-width="1" fill="none" fill-rule="evenodd" opacity="0.6">
        <g id="6---Detalhes-Hospital" transform="translate(-66.000000, -1230.000000)">
            <g id="Page-1" transform="translate(60.000000, 1224.000000)">
                <polygon id="Stroke-1" stroke-opacity="0.00784313771" stroke="#000000" stroke-width="1.33333335e-11" points="0 0 49.9999969 0 49.9999969 49.9999969 0 49.9999969"></polygon>
                <path d="M22.9166653,35.4166645 C22.9166653,36.5624961 23.8541648,37.4999977 24.9999985,37.4999977 C26.145832,37.4999977 27.0833317,36.5624961 27.0833317,35.4166645 C27.0833317,34.2708327 26.145832,33.3333313 24.9999985,33.3333313 C23.8541648,33.3333313 22.9166653,34.2708327 22.9166653,35.4166645 L22.9166653,35.4166645 Z M22.9166653,6.24999962 L22.9166653,14.5833325 L27.0833317,14.5833325 L27.0833317,10.5833325 C34.1458298,11.6041653 39.583331,17.6458328 39.583331,24.9999985 C39.583331,33.0624976 33.0624976,39.583331 24.9999985,39.583331 C16.9374992,39.583331 10.416666,33.0624976 10.416666,24.9999985 C10.416666,21.4999979 11.6458329,18.291665 13.7083323,15.7916656 L24.9999985,27.0833317 L27.9374979,24.1458321 L13.7708318,9.97916598 L13.7708318,10.0208326 C9.20833293,13.4374988 6.24999963,18.8541659 6.24999963,24.9999985 C6.24999963,35.354167 14.6249991,43.7499974 24.9999985,43.7499974 C35.354167,43.7499974 43.7499974,35.3541631 43.7499974,24.9999985 C43.7499974,14.6458339 35.3541631,6.24999962 24.9999985,6.24999962 L22.9166653,6.24999962 L22.9166653,6.24999962 Z M37.4999978,24.9999985 C37.4999978,23.8541648 36.5624961,22.9166653 35.4166645,22.9166653 C34.2708327,22.9166653 33.3333313,23.8541648 33.3333313,24.9999985 C33.3333313,26.145832 34.2708327,27.0833317 35.4166645,27.0833317 C36.5624961,27.0833317 37.4999978,26.145832 37.4999978,24.9999985 L37.4999978,24.9999985 Z M12.4999993,24.9999985 C12.4999993,26.145832 13.4374988,27.0833317 14.5833325,27.0833317 C15.7291661,27.0833317 16.6666657,26.145832 16.6666657,24.9999985 C16.6666657,23.8541648 15.7291661,22.9166653 14.5833325,22.9166653 C13.4374988,22.9166653 12.4999993,23.8541648 12.4999993,24.9999985 L12.4999993,24.9999985 Z" id="Fill-2" fill="#000000"></path>
            </g>
        </g>
    </g>
</svg>