<?xml version="1.0" encoding="UTF-8" standalone="no"?>
<svg width="33px" height="33px" viewBox="0 0 33 33" version="1.1" xmlns="http://www.w3.org/2000/svg" xmlns:xlink="http://www.w3.org/1999/xlink">
    <!-- Generator: Sketch 40.1 (33804) - http://www.bohemiancoding.com/sketch -->
    <title>more</title>
    <desc>Created with Sketch.</desc>
    <defs></defs>
    <g id="Page-1" stroke="none" stroke-width="1" fill="none" fill-rule="evenodd" opacity="0.5">
        <g id="3---Mais-Informações" transform="translate(-640.000000, -1218.000000)">
            <g id="more" transform="translate(637.000000, 1215.000000)">
                <polygon id="Stroke-1" stroke-opacity="0.00784313771" stroke="#000000" stroke-width="1.33333335e-11" points="0 0 38.9999976 0 38.9999976 38.9999976 0 38.9999976"></polygon>
                <path d="M19.4999988,3.24999981 C10.5299994,3.24999981 3.2499998,10.5299994 3.2499998,19.4999988 C3.2499998,28.4699989 10.5299994,35.7499979 19.4999988,35.7499979 C28.4699989,35.7499979 35.7499979,28.4699989 35.7499979,19.4999988 C35.7499979,10.5299986 28.4699989,3.24999981 19.4999988,3.24999981 L19.4999988,3.24999981 Z M27.6249983,21.1249987 L21.1249987,21.1249987 L21.1249987,27.6249983 L17.8749989,27.6249983 L17.8749989,21.1249987 L11.3749993,21.1249987 L11.3749993,17.8749989 L17.8749989,17.8749989 L17.8749989,11.3749993 L21.1249987,11.3749993 L21.1249987,17.8749989 L27.6249983,17.8749989 L27.6249983,21.1249987 L27.6249983,21.1249987 Z" id="Fill-2" fill="#00FF66"></path>
            </g>
        </g>
    </g>
</svg>