<?xml version="1.0" encoding="UTF-8" standalone="no"?><!DOCTYPE svg PUBLIC "-//W3C//DTD SVG 1.1//EN" "http://www.w3.org/Graphics/SVG/1.1/DTD/svg11.dtd"><svg width="100%" height="100%" viewBox="0 0 556 176" version="1.1" xmlns="http://www.w3.org/2000/svg" xmlns:xlink="http://www.w3.org/1999/xlink" xml:space="preserve" style="fill-rule:evenodd;clip-rule:evenodd;stroke-linejoin:round;stroke-miterlimit:1.41421;"><g><path d="M43.304,76.297c-5.6,-1.8 -11.6,-4.2 -16,-6.4c-5,-2.6 -12.8,-7.6 -12.8,-21.8c0,-18.999 13.2,-24.599 27.2,-24.599c8.2,0 13.8,2.2 18.4,4c2.2,1 4.8,1.8 7,1.8c4.2,0 6.599,-3 6.599,-6.2c0,-10.2 -23.399,-12.4 -33.199,-12.4c-24.599,0 -40,14.4 -40,38.399c0,26.6 19,32.8 36.6,38.8c5.8,2 11.8,4.2 16,6.4c5.4,2.8 12.399,8.4 12.399,21.999c0,16.8 -9.599,26.6 -28.799,26.6c-10.4,0 -17.799,-2.8 -23,-5c-3,-1 -6.2,-2.2 -7.399,-2.2c-3.2,0 -6,3.2 -6,6.6c0,9.8 23.6,13.4 36.199,13.4c24.8,0 43.199,-14.8 43.199,-40.8c0,-25.599 -19.399,-32.999 -36.399,-38.599" style="fill:#0cf;fill-rule:nonzero;"/><path d="M294.501,76.297c-5.6,-1.8 -11.6,-4.2 -16,-6.4c-5,-2.6 -12.8,-7.6 -12.8,-21.8c0,-18.999 13.2,-24.599 27.2,-24.599c8.2,0 13.8,2.2 18.4,4c2.2,1 4.8,1.8 7,1.8c4.2,0 6.599,-3 6.599,-6.2c0,-10.2 -23.399,-12.4 -33.199,-12.4c-24.599,0 -40,14.4 -40,38.399c0,26.6 19,32.8 36.6,38.8c5.8,2 11.8,4.2 16,6.4c5.4,2.8 12.399,8.4 12.399,21.999c0,16.8 -9.599,26.6 -28.799,26.6c-10.4,0 -17.799,-2.8 -23,-5c-3,-1 -6.2,-2.2 -7.399,-2.2c-3.2,0 -6,3.2 -6,6.6c0,9.8 23.6,13.4 36.199,13.4c24.8,0 43.199,-14.8 43.199,-40.8c0,-25.599 -19.399,-32.999 -36.399,-38.599" style="fill:#0cf;fill-rule:nonzero;"/><path d="M399.497,82.447l-18.321,0l0,-43l18.321,0c18.8,0 23,11.2 23,21.6c0,14.4 -8,21.4 -23,21.4M399.497,14.447l-29.399,0c-8.4,0 -16.922,5.051 -16.922,12.851l0,115.198c0,7.2 6.6,13.2 14,13.2c7.599,0 14,-6.2 14,-13.2l0,-35.049l18.321,0c31,0 51,-16.6 51,-46.2c0,-24.4 -13.4,-46.8 -51,-46.8" style="fill:#0f6;fill-rule:nonzero;"/><path d="M514.695,70.497c-4.399,-1.2 -9.199,-2.8 -14.399,-5.4c-3.401,-1.6 -8.401,-4.6 -8.401,-13.4c0,-11.8 9.2,-15.199 19,-15.199c7,0 11.401,1.6 15.2,2.999c3.4,1 6.2,2.2 9.8,2.2c8.8,0 14,-5.999 14,-12.599c0,-15 -28.4,-18 -40.2,-18c-28.399,0 -46.399,15.6 -46.399,41.399c0,29 21.2,35.6 40.799,41.6c5.401,1.8 10.4,3.6 14.6,5.4c3.601,1.6 8.2,4.6 8.2,13.599c0,11 -7,17.2 -20.8,17.2c-8.599,0 -15,-2.4 -19.799,-4c-3.8,-1.4 -7,-2.4 -10,-2.4c-7.4,0 -13.2,6.2 -13.2,12.6c0,14 27.999,19.2 42.799,19.2c28.6,0 49.8,-16 49.8,-43.8c0,-28.399 -21.4,-35.199 -41,-41.399" style="fill:#0f6;fill-rule:nonzero;"/><path d="M165.799,0.681c-18.6,0 -37.201,7.096 -51.393,21.288l-1.038,1.038c-28.383,28.383 -28.383,74.402 0,102.785l47.473,47.473c1.369,1.369 3.164,2.054 4.958,2.054c1.794,0 3.589,-0.685 4.958,-2.054l47.473,-47.473c28.383,-28.383 28.383,-74.402 0,-102.785l-1.038,-1.038c-14.192,-14.192 -32.793,-21.288 -51.393,-21.288M165.799,12.681c16.208,0 31.446,6.312 42.907,17.772l1.038,1.039c23.659,23.659 23.659,62.155 0,85.815l-43.945,43.945l-43.945,-43.945c-23.659,-23.66 -23.659,-62.156 0,-85.815l1.038,-1.038c11.461,-11.461 26.699,-17.773 42.907,-17.773" style="fill:#0cf;fill-rule:nonzero;"/><path d="M159.299,45.897l0,61c0,3.866 3.134,7 7,7c3.866,0 7,-3.134 7,-7l0,-61c0,-3.866 -3.134,-7 -7,-7c-3.866,0 -7,3.134 -7,7" style="fill:#0f6;fill-rule:nonzero;"/><path d="M196.299,69.897l-61,0c-3.866,0 -7,3.134 -7,7c0,3.866 3.134,7 7,7l61,0c3.866,0 7,-3.134 7,-7c0,-3.866 -3.134,-7 -7,-7" style="fill:#0f6;fill-rule:nonzero;"/></g></svg>